<svg width="14" height="13" viewBox="0 0 14 13" fill="none" xmlns="http://www.w3.org/2000/svg">
<path d="M10.7917 1.1818H7.28702C7.2399 1.18158 7.19353 1.17003 7.15169 1.14812L5.43376 0.236355C5.14124 0.0812408 4.81601 0.000138494 4.48583 0H3.20833C1.43722 0.00193892 0.00194141 1.45588 0 3.24999V9.75001C0.00194141 11.5441 1.43722 12.9981 3.20833 13H10.7917C12.5628 12.998 13.9981 11.5441 14 9.75001V4.43182C13.9981 2.63768 12.5628 1.18377 10.7917 1.1818ZM12.25 9.74998C12.25 10.5659 11.5971 11.2272 10.7917 11.2272H3.20833C2.40292 11.2273 1.75 10.5659 1.75 9.74998V4.11686H12.215C12.238 4.22023 12.2497 4.32585 12.25 4.43182V9.74998Z" fill="#F39C12"/>
</svg>
