<svg width="14" height="14" viewBox="0 0 14 14" fill="none" xmlns="http://www.w3.org/2000/svg">
<path d="M4.65674 8.16699C7.23691 8.16429 9.33065 10.2537 9.3335 12.834V13.125C9.3335 13.6083 8.94176 14 8.4585 14C7.97531 13.9999 7.5835 13.6082 7.5835 13.125V12.834C7.58341 12.7386 7.57923 12.6427 7.56982 12.5479C7.41058 10.9431 5.98026 9.77166 4.37549 9.93066C2.85507 10.1247 1.72418 11.4313 1.75049 12.9639V13.125C1.75049 13.6081 1.35857 13.9998 0.875488 14C0.392227 14 0.000488281 13.6083 0.000488281 13.125V12.999C-0.0325163 10.503 1.86112 8.4025 4.34717 8.17773C4.45009 8.17079 4.55354 8.1671 4.65674 8.16699ZM11.3755 4.08398C11.8587 4.08398 12.2505 4.47572 12.2505 4.95898V5.83398H13.1255C13.6087 5.83398 14.0005 6.22573 14.0005 6.70898C14.0005 7.19225 13.6087 7.58398 13.1255 7.58398H12.2505V8.45898C12.2505 8.94225 11.8587 9.33398 11.3755 9.33398C10.8923 9.33389 10.5005 8.94219 10.5005 8.45898V7.58398H9.62549C9.14228 7.58392 8.75049 7.19221 8.75049 6.70898C8.7505 6.22577 9.14229 5.83405 9.62549 5.83398H10.5005V4.95898C10.5005 4.47578 10.8923 4.08408 11.3755 4.08398ZM4.66748 0C6.60018 0.000234586 8.16725 1.56728 8.16748 3.5C8.16748 5.43292 6.60033 7.00074 4.66748 7.00098C2.73523 6.99904 1.16845 5.43227 1.1665 3.5C1.16673 1.56713 2.73458 0 4.66748 0ZM4.66748 1.75C3.7011 1.75 2.91673 2.53366 2.9165 3.5C2.9165 4.46653 3.70096 5.25098 4.66748 5.25098C5.6338 5.25074 6.41748 4.46639 6.41748 3.5C6.41725 2.53381 5.63366 1.75023 4.66748 1.75Z" fill="#111111"/>
</svg>
