<svg width="14" height="14" viewBox="0 0 14 14" fill="none" xmlns="http://www.w3.org/2000/svg">
<path d="M4.33398 0C5.231 0.00101884 6.09129 0.351334 6.72559 0.974609C7.35996 1.59797 7.71683 2.44364 7.71777 3.3252V3.79199C7.71769 4.02379 7.62374 4.24617 7.45703 4.41016C7.29008 4.5742 7.06324 4.66694 6.82715 4.66699C6.59098 4.66699 6.36426 4.57425 6.19727 4.41016C6.03043 4.24615 5.93661 4.02388 5.93652 3.79199V3.3252C5.93652 2.90748 5.76739 2.50631 5.4668 2.21094C5.16632 1.91583 4.75882 1.75009 4.33398 1.75H3.38379C2.95869 1.75 2.55059 1.91557 2.25 2.21094C1.94942 2.50631 1.78125 2.90749 1.78125 3.3252V10.6748C1.78125 11.0925 1.94942 11.4937 2.25 11.7891C2.55059 12.0844 2.95869 12.25 3.38379 12.25H4.33398C4.75882 12.2499 5.16632 12.0842 5.4668 11.7891C5.76739 11.4937 5.93652 11.0925 5.93652 10.6748V10.208C5.93661 9.97612 6.03043 9.75385 6.19727 9.58984C6.36426 9.42575 6.59098 9.33301 6.82715 9.33301C7.06324 9.33306 7.29008 9.4258 7.45703 9.58984C7.62374 9.75383 7.71769 9.97621 7.71777 10.208V10.6748C7.71683 11.5564 7.35996 12.402 6.72559 13.0254C6.09129 13.6487 5.231 13.999 4.33398 14H3.38379C2.48672 13.9991 1.62655 13.6486 0.992188 13.0254C0.357808 12.402 0.000942878 11.5564 0 10.6748V3.3252C0.000942878 2.44363 0.357808 1.59797 0.992188 0.974609C1.62655 0.351357 2.48672 0.000927145 3.38379 0H4.33398ZM10.041 2.625C10.1579 2.62498 10.2738 2.64746 10.3818 2.69141C10.4898 2.73536 10.5882 2.79967 10.6709 2.88086L13.3936 5.55566C13.7822 5.93916 14.0003 6.45876 14 7C13.9997 7.54123 13.7807 8.06034 13.3916 8.44336L10.6689 11.1182C10.5019 11.2822 10.2753 11.3751 10.0391 11.375C9.80291 11.3749 9.57613 11.2823 9.40918 11.1182C9.24233 10.954 9.14838 10.731 9.14844 10.499C9.14859 10.2671 9.24319 10.0448 9.41016 9.88086L11.4678 7.8584L4.15527 7.875C3.91916 7.87496 3.69235 7.78222 3.52539 7.61816C3.35866 7.45419 3.26476 7.23179 3.26465 7C3.26465 6.76802 3.35851 6.54494 3.52539 6.38086C3.69235 6.2168 3.91916 6.12504 4.15527 6.125L11.4365 6.1084L9.41113 4.11816C9.3287 4.0371 9.26345 3.94081 9.21875 3.83496C9.174 3.72886 9.15044 3.61485 9.15039 3.5C9.15033 3.26793 9.24418 3.045 9.41113 2.88086C9.4938 2.79959 9.59218 2.73541 9.7002 2.69141C9.80823 2.6474 9.92407 2.62503 10.041 2.625Z" fill="#111111"/>
</svg>
