<svg width="14" height="14" viewBox="0 0 14 14" fill="none" xmlns="http://www.w3.org/2000/svg">
<path d="M0.875 0C1.10706 7.89265e-09 1.33005 0.0917651 1.49414 0.255859C1.65823 0.419954 1.75 0.642936 1.75 0.875V10.792C1.75009 11.1786 1.90334 11.5498 2.17676 11.8232C2.45017 12.0967 2.82135 12.2499 3.20801 12.25H13.125C13.3571 12.25 13.58 12.3418 13.7441 12.5059C13.9082 12.67 14 12.8929 14 13.125C14 13.3571 13.9082 13.58 13.7441 13.7441C13.58 13.9082 13.3571 14 13.125 14H3.20801C2.35722 13.9999 1.54106 13.6621 0.939453 13.0605C0.337851 12.4589 8.6294e-05 11.6428 0 10.792V0.875C0 0.642936 0.091765 0.419954 0.255859 0.255859C0.419954 0.091765 0.642936 0 0.875 0ZM4.375 5.25C4.60706 5.25 4.83005 5.34177 4.99414 5.50586C5.15823 5.66995 5.25 5.89294 5.25 6.125V9.625C5.25 9.85706 5.15823 10.08 4.99414 10.2441C4.83005 10.4082 4.60706 10.5 4.375 10.5C4.14294 10.5 3.91995 10.4082 3.75586 10.2441C3.59177 10.08 3.5 9.85706 3.5 9.625V6.125C3.5 5.89294 3.59177 5.66995 3.75586 5.50586C3.91995 5.34177 4.14294 5.25 4.375 5.25ZM7.875 2.33301C8.10706 2.33301 8.33005 2.42477 8.49414 2.58887C8.65823 2.75296 8.75 2.97595 8.75 3.20801V9.625C8.74991 9.85679 8.65796 10.0792 8.49414 10.2432C8.33005 10.4073 8.10706 10.5 7.875 10.5C7.64294 10.5 7.41995 10.4073 7.25586 10.2432C7.09204 10.0792 7.00009 9.85679 7 9.625V3.20801C7 2.97595 7.09177 2.75296 7.25586 2.58887C7.41995 2.42477 7.64294 2.33301 7.875 2.33301ZM11.375 5.25C11.6071 5.25 11.83 5.34177 11.9941 5.50586C12.1582 5.66995 12.25 5.89294 12.25 6.125V9.625C12.25 9.85706 12.1582 10.08 11.9941 10.2441C11.83 10.4082 11.6071 10.5 11.375 10.5C11.1429 10.5 10.92 10.4082 10.7559 10.2441C10.5918 10.08 10.5 9.85706 10.5 9.625V6.125C10.5 5.89294 10.5918 5.66995 10.7559 5.50586C10.92 5.34177 11.1429 5.25 11.375 5.25Z" fill="#111111"/>
</svg>
