<svg width="14" height="13" viewBox="0 0 14 13" fill="none" xmlns="http://www.w3.org/2000/svg">
<path d="M13.4021 4.70923L9.2686 0.87097C8.01475 -0.290323 5.98527 -0.290323 4.73143 0.87097L0.597933 4.70923C0.213808 5.06401 -0.00149608 5.54674 7.82595e-06 6.04986V11.6713C0.00129298 12.405 0.641902 12.9994 1.43211 13H12.5679C13.3581 12.9994 13.9987 12.405 14 11.6713V6.04986C14.0015 5.54674 13.7862 5.06401 13.4021 4.70923ZM12.25 11.375H9.33335V9.6514C9.33335 8.50923 8.3362 7.5833 7.10617 7.5833H6.89385C5.66382 7.5833 4.66668 8.50923 4.66668 9.6514V11.375H1.75001V6.04986C1.7502 5.97803 1.78077 5.90917 1.83518 5.85811L5.96868 2.01985C6.53811 1.49093 7.46148 1.49083 8.03108 2.01959V2.01959L12.1648 5.85811C12.2192 5.90917 12.2498 5.97803 12.25 6.04986L12.25 11.375Z" fill="#111111"/>
</svg>
